<svg xmlns="http://www.w3.org/2000/svg" viewBox="0 0 1066.19 209.68">
  <defs>
    <linearGradient id="nomadic-flame" x1="76.17" y1="198.83" x2="81.37" y2="142.24" gradientUnits="userSpaceOnUse">
      <stop offset=".36" stop-color="#ff671f"/>
      <stop offset="1" stop-color="#fff" stop-opacity="0"/>
    </linearGradient>
  </defs>
  <g fill="#111">
    <path d="M963.78,129.49c0-10.63,2.17-20.08,6.51-28.33,4.48-8.25,10.56-14.69,18.26-19.31,7.84-4.76,16.86-7.14,27.07-7.14,14.13,0,25.67,3.71,34.63,11.12,9.09,7.28,14.34,17.14,15.74,29.59h-25.61c-1.54-5.88-4.4-10.28-8.6-13.22-4.06-3.08-9.16-4.62-15.32-4.62-5.32,0-10.07,1.33-14.27,3.99-4.06,2.52-7.21,6.16-9.44,10.91-2.24,4.76-3.36,10.42-3.36,17s1.05,12.24,3.15,17c2.1,4.76,5.11,8.46,9.02,11.12,4.06,2.52,8.81,3.78,14.27,3.78,6.44,0,11.75-1.54,15.95-4.62,4.34-3.08,7.2-7.49,8.6-13.22h25.82c-1.12,8.11-3.99,15.25-8.61,21.4-4.48,6.02-10.28,10.77-17.42,14.27-7.13,3.36-15.25,5.04-24.34,5.04-10.49,0-19.66-2.24-27.49-6.72-7.83-4.62-13.92-10.98-18.26-19.1-4.2-8.25-6.3-17.91-6.3-28.96Z"/>
    <path d="M926.2,181.54v-103.67h25.6v103.67h-25.6ZM938.8,57.09c-4.34,0-8.05-1.47-11.12-4.41-2.94-3.08-4.41-6.79-4.41-11.12s1.47-7.97,4.41-10.91c3.08-2.94,6.79-4.41,11.12-4.41s7.97,1.47,10.91,4.41c3.08,2.94,4.62,6.58,4.62,10.91s-1.54,8.04-4.62,11.12c-2.94,2.94-6.58,4.41-10.91,4.41Z"/>
    <path d="M847.27,184.27c-10.07,0-18.75-2.24-26.02-6.72-7.14-4.62-12.73-10.98-16.79-19.1-3.92-8.11-5.88-17.56-5.88-28.33s1.96-20.29,5.88-28.54c4.06-8.39,9.86-14.97,17.42-19.73,7.55-4.76,16.51-7.14,26.86-7.14,7.28,0,13.92,1.47,19.94,4.41,6.02,2.8,10.63,6.79,13.85,11.96V25.41h25.39v156.13h-23.5l-1.68-16.16c-3.08,5.88-7.83,10.49-14.27,13.85-6.29,3.36-13.36,5.04-21.2,5.04ZM852.94,160.76c6.02,0,11.19-1.26,15.53-3.78,4.34-2.66,7.7-6.37,10.07-11.12,2.52-4.9,3.78-10.42,3.78-16.58s-1.26-11.75-3.78-16.37c-2.38-4.76-5.74-8.46-10.07-11.12-4.34-2.8-9.51-4.2-15.53-4.2s-10.98,1.4-15.32,4.2c-4.34,2.66-7.7,6.36-10.07,11.12-2.24,4.76-3.36,10.21-3.36,16.37s1.12,11.61,3.36,16.37c2.38,4.76,5.74,8.46,10.07,11.12,4.34,2.66,9.44,3.99,15.32,3.99Z"/>
    <path d="M728.94,184.27c-10.91,0-19.59-2.94-26.02-8.81-6.3-6.02-9.44-13.85-9.44-23.5s3.29-17.07,9.86-22.66c6.72-5.74,16.23-9.09,28.54-10.07l31.06-2.52v-2.31c0-4.76-.91-8.53-2.73-11.33-1.68-2.94-4.13-5.04-7.34-6.3-3.22-1.4-7-2.1-11.33-2.1-7.55,0-13.36,1.54-17.42,4.62-4.06,2.94-6.09,7.13-6.09,12.59h-21.83c0-7.56,1.89-14.06,5.67-19.52,3.92-5.6,9.37-9.93,16.37-13.01,7.14-3.08,15.32-4.62,24.55-4.62s17.42,1.68,24.13,5.04c6.72,3.22,11.89,8.11,15.53,14.69,3.64,6.44,5.46,14.48,5.46,24.13v62.96h-22.46l-1.89-15.32c-2.24,5.32-6.58,9.65-13.01,13.01-6.3,3.36-13.5,5.04-21.61,5.04ZM737.13,164.96c7.97,0,14.27-2.24,18.89-6.71,4.76-4.48,7.14-10.7,7.14-18.68v-5.46l-21.61,1.68c-7.97.7-13.64,2.38-17,5.04-3.36,2.52-5.04,5.88-5.04,10.07,0,4.62,1.54,8.11,4.62,10.49,3.08,2.38,7.41,3.57,13.01,3.57Z"/>
    <path d="M546.42,181.54h-25.6v-103.67h23.5l3.15,18.47-2.94-2.52c2.1-5.04,5.95-9.44,11.54-13.22,5.6-3.92,12.59-5.88,20.98-5.88,9.09,0,16.51,2.38,22.24,7.14,5.88,4.76,9.93,11.05,12.17,18.89h-4.2c1.54-7.83,5.46-14.13,11.75-18.89,6.44-4.76,14.2-7.14,23.29-7.14,12.59,0,22.24,3.57,28.96,10.7,6.72,7,10.07,16.44,10.07,28.33v67.78h-25.39v-61.07c0-7.42-1.89-13.01-5.67-16.79-3.64-3.92-8.53-5.88-14.69-5.88-3.92,0-7.55.91-10.91,2.73-3.22,1.82-5.81,4.55-7.76,8.18-1.96,3.64-2.94,8.32-2.94,14.06v58.76h-25.6v-61.28c0-7.28-1.82-12.8-5.46-16.58-3.64-3.78-8.46-5.67-14.48-5.67-4.06,0-7.77.91-11.12,2.73-3.36,1.68-6.02,4.41-7.97,8.19-1.96,3.64-2.94,8.25-2.94,13.85v58.76Z"/>
    <path d="M398.11,129.49c0-10.77,2.38-20.22,7.14-28.33,4.76-8.25,11.33-14.69,19.73-19.31,8.39-4.62,17.91-6.93,28.54-6.93s20.29,2.31,28.54,6.93c8.39,4.62,14.97,11.05,19.73,19.31,4.76,8.11,7.14,17.56,7.14,28.33s-2.38,20.29-7.14,28.54c-4.76,8.11-11.33,14.48-19.73,19.1-8.25,4.62-17.77,6.93-28.54,6.93s-20.15-2.31-28.54-6.93c-8.39-4.62-14.97-10.98-19.73-19.1-4.76-8.25-7.14-17.77-7.14-28.54ZM423.72,129.49c0,6.3,1.26,11.82,3.78,16.58,2.66,4.76,6.16,8.46,10.49,11.12,4.48,2.66,9.65,3.99,15.53,3.99s11.05-1.33,15.53-3.99c4.48-2.66,7.97-6.37,10.49-11.12,2.52-4.76,3.78-10.28,3.78-16.58s-1.26-11.96-3.78-16.58c-2.52-4.76-6.02-8.46-10.49-11.12-4.48-2.66-9.65-3.99-15.53-3.99s-11.05,1.33-15.53,3.99c-4.34,2.66-7.83,6.37-10.49,11.12-2.52,4.62-3.78,10.14-3.78,16.58Z"/>
    <path d="M283.78,181.54h-26.44V28.13h26.65l79.74,120.67h-7.76V28.13h26.44v153.4h-26.44l-79.95-120.46h7.76v120.46Z"/>
    <path d="M209.68,169.68c0,14,0,21-2.73,26.35-2.4,4.7-6.22,8.53-10.93,10.93-5.35,2.73-12.35,2.73-26.35,2.73H40c-14,0-21,0-26.35-2.73-4.7-2.4-8.53-6.22-10.93-10.93C0,190.68,0,183.68,0,169.68v-29.93c14.87,41.99,56.07,69.66,104.57,69.66s90.72-28.36,105.11-71.23v31.51ZM169.68,0C183.68,0,190.68,0,196.03,2.72c4.7,2.4,8.53,6.22,10.93,10.93,2.73,5.35,2.73,12.35,2.73,26.35v30.4C198.96,37.4,173.13,11.22,140.36,0h29.32ZM68.77,0C36.54,11.03,11.03,36.54,0,68.77v-28.77C0,26,0,19,2.72,13.65c2.4-4.7,6.22-8.53,10.93-10.93C19,0,26,0,40,0h28.77Z"/>
    <path d="M104.64,0l50.98,104.84,25.49,52.42,12.74,26.21,6.42,19.63-21.68,6.58h-84.04L104.64,0l-50.98,209.68H18.86l-3.5-.28-9.66-3.23v-6.43l9.72-16.27,12.75-26.21,25.49-52.42L104.64,0Z"/>
  </g>
  <path fill="url(#nomadic-flame)" d="M81.11,139.9c18.05,1.33,30.65,18.22,28.15,37.73s16.67,38.01-34.49,30.14c-17.89-2.75-33.38-15.43-30.88-34.94,2.5-19.51,19.17-34.25,37.22-32.93Z"/>
</svg>
